{"glyphs":{":":{"x_min":0,"x_max":600,"ha":600,"o":"m 242 0 l 242 146 l 357 146 l 357 0 z m 242 382 l 242 528 l 357 528 l 357 382 z"},"$":{"x_min":0,"x_max":600,"ha":600,"o":"m 562 186 q 562 106 503 60 q 444 14 335 10 l 335 -69 l 272 -69 l 272 10 q 66 17 32 185 l 115 203 q 128 142 167 111 q 206 81 272 77 l 272 316 l 258 320 q 176 340 137 364 q 99 387 81 420 q 63 454 63 500 q 63 572 117 613 q 170 654 272 657 l 272 721 l 335 721 l 335 657 q 426 654 475 618 q 524 583 546 500 l 461 484 q 451 536 419 562 q 388 589 335 592 l 335 384 q 419 364 457 346 q 494 329 517 306 q 539 284 550 254 q 562 225 562 186 z m 147 497 q 147 469 159 450 q 170 432 192 419 q 214 407 272 392 l 272 593 q 211 591 179 566 q 147 542 147 497 z m 478 187 q 478 219 464 240 q 451 261 426 275 q 402 289 335 306 l 335 76 q 405 81 441 109 q 478 138 478 187 z"},"?":{"x_min":0,"x_max":600,"ha":600,"o":"m 524 489 q 524 454 513 426 q 502 398 482 374 q 462 351 417 318 q 363 279 346 261 q 329 243 319 222 q 309 201 308 174 l 223 174 q 224 208 235 236 q 246 263 265 285 q 284 308 331 343 q 383 381 399 399 q 416 417 425 438 q 435 458 435 485 q 435 539 396 567 q 357 596 291 596 q 225 596 184 560 q 143 524 136 463 l 46 469 q 59 565 124 617 q 189 669 290 669 q 399 669 461 622 q 524 575 524 489 z m 219 0 l 219 98 l 314 98 l 314 0 z"},"<":{"x_min":0,"x_max":600,"ha":600,"o":"m 57 279 l 57 379 l 542 583 l 542 508 l 124 329 l 542 150 l 542 75 z"},"'":{"x_min":0,"x_max":600,"ha":600,"o":"m 334 413 l 265 413 l 245 725 l 354 725 z"},"=":{"x_min":0,"x_max":600,"ha":600,"o":"m 57 418 l 57 490 l 542 490 l 542 418 z m 57 168 l 57 240 l 542 240 l 542 168 z"},"a":{"x_min":0,"x_max":600,"ha":600,"o":"m 538 54 q 550 54 566 58 l 566 3 q 533 -5 499 -5 q 450 -5 427 21 q 405 46 402 101 l 399 101 q 368 42 324 16 q 281 -10 218 -10 q 141 -10 102 32 q 62 74 62 147 q 62 318 284 320 l 399 322 l 399 351 q 399 415 374 443 q 348 471 291 471 q 233 471 208 451 q 183 430 178 387 l 86 396 q 108 538 292 538 q 390 538 439 492 q 488 447 488 360 l 488 133 q 488 94 499 74 q 509 54 538 54 z m 240 57 q 287 57 323 80 q 359 102 379 140 q 399 177 399 217 l 399 261 l 307 259 q 249 258 219 246 q 188 234 172 210 q 155 186 155 146 q 155 106 177 82 q 198 57 240 57 z"},"L":{"x_min":0,"x_max":600,"ha":600,"o":"m 116 0 l 116 659 l 209 659 l 209 76 l 537 76 l 537 0 z"},"3":{"x_min":0,"x_max":600,"ha":600,"o":"m 537 181 q 537 90 475 40 q 414 -10 303 -10 q 199 -10 136 38 q 74 85 62 177 l 153 185 q 171 63 303 63 q 370 63 407 94 q 445 125 445 184 q 445 220 423 245 q 401 271 363 284 q 325 297 277 297 l 228 297 l 228 374 l 275 374 q 317 374 352 387 q 387 401 407 427 q 427 452 427 487 q 427 539 395 568 q 362 597 298 597 q 240 597 204 567 q 168 537 163 483 l 74 490 q 84 574 144 622 q 205 669 299 669 q 403 669 460 623 q 518 578 518 496 q 518 438 479 395 q 440 352 374 338 l 374 336 q 447 328 492 285 q 537 241 537 181 z"},";":{"x_min":0,"x_max":600,"ha":600,"o":"m 242 382 l 242 528 l 357 528 l 357 382 z m 172 -177 l 254 146 l 384 146 l 232 -177 z"},"J":{"x_min":0,"x_max":600,"ha":600,"o":"m 481 205 q 481 103 430 47 q 379 -10 286 -10 q 203 -10 153 34 q 103 77 86 171 l 177 186 q 186 128 215 97 q 243 66 287 66 q 389 66 389 203 l 389 583 l 237 583 l 237 659 l 481 659 z"},"V":{"x_min":0,"x_max":600,"ha":600,"o":"m 348 0 l 251 0 l 5 659 l 103 659 l 259 218 q 274 176 300 82 q 320 155 341 218 l 497 659 l 595 659 z"},"\"":{"x_min":0,"x_max":600,"ha":600,"o":"m 443 413 l 374 413 l 354 725 l 464 725 z m 224 413 l 155 413 l 135 725 l 245 725 z"},"7":{"x_min":0,"x_max":600,"ha":600,"o":"m 522 591 q 291 259 291 0 l 199 0 q 199 128 259 277 q 319 426 437 588 l 77 588 l 77 659 l 522 659 z"},"S":{"x_min":0,"x_max":600,"ha":600,"o":"m 551 181 q 551 91 485 41 q 419 -10 298 -10 q 75 -10 39 165 l 129 183 q 143 120 186 92 q 229 63 300 63 q 378 63 418 93 q 458 124 458 179 q 458 213 443 235 q 427 256 401 270 q 375 284 343 292 q 310 301 277 309 q 198 330 165 346 q 131 362 111 383 q 91 403 81 430 q 71 457 71 493 q 71 578 130 623 q 189 669 300 669 q 404 669 458 633 q 513 597 535 511 l 443 495 q 431 549 396 574 q 361 599 300 599 q 162 599 162 495 q 162 465 175 447 q 188 429 210 417 q 232 405 261 397 q 291 389 325 380 q 393 363 422 352 q 452 340 475 326 q 499 311 515 291 q 532 271 541 244 q 551 217 551 181 z"},"}":{"x_min":0,"x_max":600,"ha":600,"o":"m 82 -208 l 82 -140 l 186 -140 q 230 -140 250 -118 q 270 -96 270 -44 l 270 125 q 270 175 301 211 q 332 247 382 259 l 382 260 q 332 272 301 309 q 270 345 270 393 l 270 562 q 270 613 250 635 q 230 657 186 657 l 82 657 l 82 725 l 211 725 q 276 725 315 684 q 354 644 354 577 l 354 405 q 354 354 390 324 q 426 294 489 292 l 489 225 q 425 223 390 193 q 354 164 354 112 l 354 -60 q 354 -125 314 -167 q 274 -208 211 -208 z"},"Z":{"x_min":0,"x_max":600,"ha":600,"o":"m 564 0 l 36 0 l 36 70 l 435 583 l 71 583 l 71 659 l 541 659 l 541 591 l 142 76 l 564 76 z"},"x":{"x_min":0,"x_max":600,"ha":600,"o":"m 455 0 l 298 217 l 141 0 l 46 0 l 249 271 l 55 528 l 152 528 l 298 323 l 444 528 l 542 528 l 348 272 l 553 0 z"},")":{"x_min":0,"x_max":600,"ha":600,"o":"m 432 260 q 432 123 392 15 q 352 -92 258 -208 l 164 -208 q 260 -90 301 19 q 342 127 342 259 q 342 390 301 498 q 260 607 164 725 l 258 725 q 353 607 393 501 q 432 395 432 260 z"},"&":{"x_min":0,"x_max":600,"ha":600,"o":"m 523 -6 q 488 -6 453 11 q 419 28 395 57 q 320 -10 225 -10 q 128 -10 74 39 q 21 88 21 175 q 21 306 164 379 q 148 409 137 446 q 127 483 127 517 q 127 583 172 623 q 217 663 298 663 q 370 663 412 627 q 455 592 455 532 q 455 496 436 467 q 417 438 380 414 q 344 389 256 353 q 321 240 392 163 q 435 251 453 361 l 523 340 q 502 225 444 114 q 465 88 489 75 q 513 63 532 63 q 561 63 579 71 l 579 5 q 555 -6 523 -6 z m 381 530 q 381 564 357 584 q 334 604 297 604 q 253 604 226 580 q 199 556 199 516 q 199 462 229 406 q 308 439 332 455 q 355 470 368 489 q 381 507 381 530 z m 345 106 q 257 205 190 321 q 103 274 103 177 q 103 121 137 87 q 170 54 229 54 q 260 54 291 68 q 321 81 345 106 z"},"_":{"x_min":0,"x_max":600,"ha":600,"o":"m -2 -107 l -2 -61 l 602 -61 l 602 -107 z"},"v":{"x_min":0,"x_max":600,"ha":600,"o":"m 349 0 l 245 0 l 34 528 l 132 528 l 263 185 l 271 159 l 297 69 l 314 126 l 333 184 l 468 528 l 566 528 z"},"O":{"x_min":0,"x_max":600,"ha":600,"o":"m 550 333 q 550 168 485 79 q 420 -10 299 -10 q 178 -10 114 78 q 50 165 50 333 q 50 497 113 583 q 177 669 300 669 q 421 669 485 584 q 550 500 550 333 z m 452 333 q 452 593 300 593 q 148 593 148 333 q 148 201 187 133 q 225 66 300 66 q 379 66 416 134 q 452 203 452 333 z"},"(":{"x_min":0,"x_max":600,"ha":600,"o":"m 258 259 q 258 125 300 16 q 341 -92 435 -208 l 342 -208 q 249 -92 208 16 q 167 124 167 260 q 167 393 207 500 q 247 607 342 725 l 435 725 q 341 609 300 501 q 258 392 258 259 z"},"C":{"x_min":0,"x_max":600,"ha":600,"o":"m 153 333 q 153 199 195 133 q 237 66 323 66 q 372 66 412 99 q 452 133 480 204 l 558 172 q 485 -10 322 -10 q 193 -10 124 79 q 55 167 55 333 q 55 669 317 669 q 482 669 544 505 l 462 474 q 444 529 406 561 q 368 593 317 593 q 234 593 194 530 q 153 467 153 333 z"},"W":{"x_min":0,"x_max":600,"ha":600,"o":"m 497 0 l 396 0 q 359 135 341 205 q 322 275 301 369 q 287 308 275 259 q 263 209 205 0 l 103 0 l 0 659 l 92 659 l 146 251 q 153 187 162 82 q 177 149 188 193 q 198 237 258 455 l 343 455 q 377 331 396 260 q 416 189 439 82 l 457 251 l 507 659 l 600 659 z"},"A":{"x_min":0,"x_max":600,"ha":600,"o":"m 505 0 l 438 187 l 163 187 l 96 0 l 0 0 l 249 659 l 355 659 l 600 0 z m 301 588 l 295 569 l 261 466 l 188 259 l 414 259 l 329 503 z"},"f":{"x_min":0,"x_max":600,"ha":600,"o":"m 283 459 l 283 0 l 195 0 l 195 459 l 67 459 l 67 528 l 195 528 l 195 541 q 195 641 242 683 q 290 725 399 725 q 435 725 475 721 q 516 718 537 714 l 537 644 q 522 646 477 649 q 433 652 410 652 q 359 652 333 641 q 307 629 295 604 q 283 579 283 533 l 283 528 l 523 528 l 523 459 z"},"Q":{"x_min":0,"x_max":600,"ha":600,"o":"m 550 333 q 550 191 502 105 q 454 20 364 -2 q 384 -63 417 -91 q 450 -119 499 -119 q 526 -119 555 -113 l 555 -178 q 510 -189 468 -189 q 395 -189 347 -148 q 300 -106 269 -8 q 162 3 106 90 q 50 176 50 333 q 50 497 113 583 q 177 669 300 669 q 421 669 485 584 q 550 500 550 333 z m 452 333 q 452 593 300 593 q 148 593 148 333 q 148 201 187 133 q 225 66 300 66 q 379 66 416 134 q 452 203 452 333 z"},"w":{"x_min":0,"x_max":600,"ha":600,"o":"m 497 0 l 397 0 l 328 230 l 300 329 l 281 261 l 199 0 l 100 0 l 10 528 l 97 528 l 143 232 q 159 103 159 73 q 178 151 187 177 l 253 384 l 347 384 l 411 177 q 426 125 438 73 q 438 87 439 109 q 441 131 444 155 q 447 178 450 199 q 453 220 455 232 l 504 528 l 590 528 z"},"-":{"x_min":0,"x_max":600,"ha":600,"o":"m 163 227 l 163 305 l 437 305 l 437 227 z"},"E":{"x_min":0,"x_max":600,"ha":600,"o":"m 79 0 l 79 659 l 528 659 l 528 583 l 172 583 l 172 376 l 499 376 l 499 301 l 172 301 l 172 76 l 548 76 l 548 0 z"},"s":{"x_min":0,"x_max":600,"ha":600,"o":"m 518 151 q 518 76 461 33 q 404 -10 303 -10 q 203 -10 150 22 q 98 53 82 121 l 159 136 q 168 94 199 75 q 229 56 303 56 q 435 56 435 139 q 435 170 411 190 q 387 209 338 221 q 209 253 174 271 q 140 289 121 316 q 103 343 103 384 q 103 456 154 496 q 206 537 304 537 q 390 537 441 504 q 493 472 505 410 l 426 400 q 421 435 392 453 q 362 471 304 471 q 185 471 185 397 q 185 368 205 351 q 225 333 270 322 l 328 307 q 408 288 443 269 q 478 250 498 221 q 518 192 518 151 z"},">":{"x_min":0,"x_max":600,"ha":600,"o":"m 57 75 l 57 150 l 476 329 l 57 508 l 57 583 l 542 379 l 542 279 z"},"l":{"x_min":0,"x_max":600,"ha":600,"o":"m 408 72 l 545 69 l 545 0 l 364 2 q 309 12 284 46 q 273 61 271 126 l 271 655 l 130 655 l 130 725 l 359 725 l 359 116 q 360 94 372 83 q 382 74 408 72 z m 410 69 z m 359 116 z m 367 0 z m 271 69 l 271 126 z"},"8":{"x_min":0,"x_max":600,"ha":600,"o":"m 534 185 q 534 95 473 42 q 413 -10 300 -10 q 189 -10 127 42 q 65 93 65 184 q 65 247 104 291 q 142 335 202 345 l 202 347 q 147 360 114 403 q 81 445 81 500 q 81 548 108 587 q 135 626 185 647 q 234 669 298 669 q 365 669 415 647 q 464 625 491 587 q 517 548 517 499 q 517 444 483 401 q 450 359 395 348 l 395 346 q 458 336 496 293 q 534 250 534 185 z m 426 494 q 426 548 393 576 q 360 604 298 604 q 238 604 204 576 q 171 548 171 494 q 171 440 205 410 q 238 380 299 380 q 426 380 426 494 z m 443 193 q 443 251 405 283 q 367 314 298 314 q 231 314 194 281 q 156 247 156 191 q 156 125 193 91 q 229 56 301 56 q 373 56 408 90 q 443 124 443 193 z"},"\\":{"x_min":0,"x_max":600,"ha":600,"o":"m 455 -10 l 56 725 l 143 725 l 544 -10 z"},"e":{"x_min":0,"x_max":600,"ha":600,"o":"m 157 246 q 157 157 197 106 q 236 56 304 56 q 354 56 392 78 q 430 100 443 137 l 520 115 q 499 55 441 22 q 384 -10 304 -10 q 189 -10 127 62 q 65 134 65 268 q 65 398 126 468 q 187 538 301 538 q 416 538 475 468 q 534 398 534 257 l 534 246 z m 302 473 q 237 473 199 430 q 161 388 158 313 l 443 313 q 430 473 302 473 z"},"b":{"x_min":0,"x_max":600,"ha":600,"o":"m 532 267 q 532 128 483 59 q 433 -10 341 -10 q 222 -10 178 80 l 177 80 q 177 57 175 31 q 173 6 172 0 l 87 0 q 90 26 90 109 l 90 725 l 178 725 l 178 518 q 178 486 176 441 l 178 441 q 223 539 341 539 q 532 539 532 267 z m 441 264 q 441 373 411 422 q 381 471 317 471 q 245 471 211 418 q 178 364 178 256 q 178 154 210 104 q 243 55 316 55 q 382 55 412 106 q 441 157 441 264 z"},"%":{"x_min":0,"x_max":600,"ha":600,"o":"m 108 0 l 37 0 l 492 661 l 564 661 z m 142 665 q 280 665 280 500 q 280 419 245 376 q 209 334 140 334 q 71 334 36 376 q 0 418 0 500 q 0 582 34 623 q 68 665 142 665 z m 208 500 q 208 559 193 585 q 178 612 142 612 q 104 612 88 586 q 72 560 72 500 q 72 444 88 417 q 104 389 141 389 q 176 389 192 416 q 208 443 208 500 z m 462 325 q 601 325 601 161 q 601 79 565 37 q 529 -6 460 -6 q 392 -6 356 36 q 320 78 320 161 q 320 242 354 283 q 389 325 462 325 z m 529 161 q 529 219 513 245 q 498 272 462 272 q 424 272 408 246 q 392 220 392 161 q 392 104 408 77 q 424 49 461 49 q 496 49 512 76 q 529 104 529 161 z"},"m":{"x_min":0,"x_max":600,"ha":600,"o":"m 259 0 l 259 335 q 259 410 247 440 q 235 470 204 470 q 172 470 153 423 q 134 376 134 296 l 134 0 l 51 0 l 51 416 q 51 508 48 528 l 121 528 l 124 466 l 124 443 l 125 443 q 142 493 167 515 q 192 538 230 538 q 273 538 295 515 q 316 491 325 442 l 326 442 q 346 494 373 516 q 400 538 441 538 q 499 538 524 496 q 549 454 549 352 l 549 0 l 467 0 l 467 335 q 467 410 455 440 q 443 470 411 470 q 379 470 360 429 q 341 388 341 306 l 341 0 z"},"#":{"x_min":0,"x_max":600,"ha":600,"o":"m 454 407 l 421 252 l 548 252 l 548 199 l 410 199 l 367 0 l 313 0 l 355 199 l 178 199 l 137 0 l 83 0 l 125 199 l 26 199 l 26 252 l 136 252 l 169 407 l 51 407 l 51 459 l 180 459 l 223 659 l 277 659 l 234 459 l 411 459 l 454 659 l 508 659 l 465 459 l 568 459 l 568 407 z m 224 407 l 190 252 l 367 252 l 400 407 z"},",":{"x_min":0,"x_max":600,"ha":600,"o":"m 126 -177 l 209 146 l 338 146 l 187 -177 z"},"n":{"x_min":0,"x_max":600,"ha":600,"o":"m 424 0 l 424 339 q 424 406 398 438 q 373 470 316 470 q 256 470 217 426 q 178 382 178 306 l 178 0 l 90 0 l 90 416 q 90 508 87 528 l 170 528 q 171 526 171 515 q 172 504 173 490 q 173 477 174 438 l 176 438 q 227 538 345 538 q 429 538 471 492 q 512 447 512 352 l 512 0 z"},"h":{"x_min":0,"x_max":600,"ha":600,"o":"m 90 725 l 179 725 l 179 534 q 179 505 174 438 l 176 438 q 227 538 341 538 q 512 538 512 352 l 512 0 l 424 0 l 424 339 q 424 406 398 438 q 373 470 316 470 q 256 470 217 426 q 178 382 178 306 l 178 0 l 90 0 z"},"z":{"x_min":0,"x_max":600,"ha":600,"o":"m 72 0 l 72 67 l 404 460 l 91 460 l 91 528 l 503 528 l 503 461 l 170 68 l 521 68 l 521 0 z"},"B":{"x_min":0,"x_max":600,"ha":600,"o":"m 562 186 q 562 98 496 49 q 429 0 310 0 l 79 0 l 79 659 l 280 659 q 522 659 522 499 q 522 439 487 399 q 452 359 392 347 q 473 338 518 295 q 562 251 562 186 z m 429 487 q 429 540 392 562 q 355 584 281 584 l 172 584 l 172 381 l 282 381 q 429 381 429 487 z m 468 194 q 468 250 425 279 q 381 308 295 308 l 172 308 l 172 75 l 302 75 q 388 75 428 104 q 468 134 468 194 z"},"K":{"x_min":0,"x_max":600,"ha":600,"o":"m 490 0 l 252 312 l 172 229 l 172 0 l 79 0 l 79 659 l 172 659 l 172 330 l 452 659 l 562 659 l 315 379 l 599 0 z"},"R":{"x_min":0,"x_max":600,"ha":600,"o":"m 467 0 l 289 281 l 172 281 l 172 0 l 79 0 l 79 659 l 314 659 q 428 659 488 612 q 547 564 547 477 q 547 404 502 354 q 456 304 379 292 l 575 0 z m 454 475 q 454 584 305 584 l 172 584 l 172 354 l 309 354 q 379 354 416 386 q 454 417 454 475 z"},"T":{"x_min":0,"x_max":600,"ha":600,"o":"m 346 583 l 346 0 l 253 0 l 253 583 l 37 583 l 37 659 l 562 659 l 562 583 z"},"P":{"x_min":0,"x_max":600,"ha":600,"o":"m 546 461 q 546 400 517 353 q 488 305 434 278 q 380 251 310 251 l 172 251 l 172 0 l 79 0 l 79 659 l 304 659 q 420 659 483 607 q 546 555 546 461 z m 453 460 q 453 584 292 584 l 172 584 l 172 325 l 296 325 q 369 325 411 360 q 453 396 453 460 z"},"|":{"x_min":0,"x_max":600,"ha":600,"o":"m 259 -208 l 259 725 l 340 725 l 340 -208 z"},"t":{"x_min":0,"x_max":600,"ha":600,"o":"m 93 459 l 93 528 l 176 528 l 204 666 l 263 666 l 263 528 l 474 528 l 474 459 l 263 459 l 263 141 q 263 102 283 83 q 304 65 352 65 q 417 65 497 82 l 497 15 q 414 -8 333 -8 q 254 -8 214 26 q 175 59 175 131 l 175 459 z"},"M":{"x_min":0,"x_max":600,"ha":600,"o":"m 458 0 l 458 424 q 458 490 459 522 l 460 571 q 429 470 414 429 l 334 215 l 267 215 l 186 429 q 177 451 139 571 l 141 424 l 141 0 l 63 0 l 63 659 l 179 659 l 269 420 q 279 394 302 307 l 315 351 l 336 419 l 427 659 l 537 659 l 537 0 z"},"g":{"x_min":0,"x_max":600,"ha":600,"o":"m 300 -207 q 218 -207 168 -173 q 119 -140 105 -77 l 195 -64 q 203 -101 231 -121 q 258 -141 303 -141 q 424 -141 424 13 l 424 108 l 423 108 q 399 58 357 32 q 314 6 256 6 q 159 6 115 69 q 70 132 70 268 q 70 406 118 471 q 166 537 265 537 q 320 537 361 511 q 402 485 424 438 l 425 438 q 425 453 427 488 q 429 522 431 528 l 515 528 q 512 502 512 419 l 512 16 q 512 -95 460 -151 q 408 -207 300 -207 z m 424 269 q 424 363 388 417 q 351 471 287 471 q 220 471 190 425 q 161 378 161 269 q 161 195 173 153 q 186 110 212 90 q 238 71 286 71 q 327 71 359 94 q 390 117 407 162 q 424 207 424 269 z"},"j":{"x_min":0,"x_max":600,"ha":600,"o":"m 408 -14 q 408 -105 354 -156 q 299 -208 198 -208 q 159 -208 119 -201 q 79 -195 57 -187 l 57 -118 q 130 -135 190 -135 q 253 -135 287 -103 q 320 -70 320 -12 l 320 459 l 122 459 l 122 528 l 408 528 z m 311 631 l 311 725 l 408 725 l 408 631 z"},"i":{"x_min":0,"x_max":600,"ha":600,"o":"m 364 69 l 549 69 l 549 0 l 70 0 l 70 69 l 276 69 l 276 459 l 120 459 l 120 528 l 364 528 z m 266 631 l 266 725 l 364 725 l 364 631 z"},"y":{"x_min":0,"x_max":600,"ha":600,"o":"m 143 -208 q 106 -208 82 -202 l 82 -136 q 101 -139 123 -139 q 162 -139 196 -110 q 229 -82 253 -19 l 262 5 l 32 528 l 126 528 l 255 215 q 299 105 303 91 l 323 145 l 474 528 l 567 528 l 344 0 q 301 -115 254 -161 q 208 -208 143 -208 z"},"@":{"x_min":0,"x_max":600,"ha":600,"o":"m 581 369 q 581 223 540 137 q 500 51 432 51 q 362 51 362 127 l 362 131 l 363 146 l 360 146 q 343 103 313 77 q 283 51 245 51 q 193 51 164 100 q 135 148 135 239 q 135 317 159 387 q 183 457 223 497 q 264 538 314 538 q 349 538 371 517 q 394 497 404 453 l 407 453 l 422 527 l 479 527 l 431 279 q 411 177 411 144 q 411 101 435 101 q 473 101 497 173 q 521 246 521 368 q 521 501 468 585 q 415 668 327 668 q 255 668 199 615 q 144 563 113 468 q 83 373 83 251 q 83 100 140 10 q 196 -81 295 -81 q 341 -81 383 -63 q 426 -46 475 -3 l 510 -46 q 454 -94 401 -116 q 348 -138 290 -138 q 209 -138 148 -91 q 87 -43 54 46 q 21 135 21 251 q 21 391 59 499 q 97 607 167 666 q 236 725 328 725 q 405 725 462 680 q 519 636 550 555 q 581 475 581 369 z m 378 383 q 378 435 361 461 q 344 488 315 488 q 285 488 259 455 q 233 423 217 364 q 201 304 201 240 q 201 103 257 103 q 293 103 322 149 q 351 195 365 272 q 378 349 378 383 z"},".":{"x_min":0,"x_max":600,"ha":600,"o":"m 242 0 l 242 146 l 357 146 l 357 0 z"},"p":{"x_min":0,"x_max":600,"ha":600,"o":"m 532 267 q 532 -10 341 -10 q 221 -10 179 80 l 177 80 q 179 76 179 -1 l 179 -208 l 90 -208 l 90 419 q 90 502 87 528 l 173 528 q 173 526 174 514 q 175 501 177 477 q 178 453 178 441 l 180 441 q 204 493 242 516 q 280 539 341 539 q 438 539 485 472 q 532 406 532 267 z m 441 267 q 441 377 412 424 q 382 471 318 471 q 244 471 211 418 q 179 364 179 256 q 179 152 211 104 q 244 55 317 55 q 382 55 412 104 q 441 154 441 267 z"},"X":{"x_min":0,"x_max":600,"ha":600,"o":"m 300 408 l 462 659 l 562 659 l 350 344 l 583 0 l 482 0 l 300 280 l 118 0 l 18 0 l 250 344 l 38 659 l 138 659 z"},"*":{"x_min":0,"x_max":600,"ha":600,"o":"m 328 580 l 457 630 l 479 566 l 341 530 l 431 408 l 373 373 l 300 499 l 224 374 l 166 409 l 258 530 l 121 566 l 143 631 l 273 579 l 268 724 l 334 724 z"},"Y":{"x_min":0,"x_max":600,"ha":600,"o":"m 346 285 l 346 0 l 254 0 l 254 285 l 18 659 l 118 659 l 300 360 l 482 659 l 582 659 z"},"c":{"x_min":0,"x_max":600,"ha":600,"o":"m 63 265 q 63 396 126 467 q 189 538 309 538 q 397 538 455 495 q 513 453 526 380 l 433 374 q 425 418 394 444 q 362 469 305 469 q 228 469 192 421 q 156 374 156 267 q 156 158 192 108 q 228 58 304 58 q 357 58 392 84 q 426 110 435 163 l 527 157 q 521 110 492 72 q 463 34 415 12 q 367 -10 308 -10 q 188 -10 126 61 q 63 131 63 265 z"},"!":{"x_min":0,"x_max":600,"ha":600,"o":"m 336 194 l 264 194 l 252 658 l 348 658 z m 251 0 l 251 98 l 346 98 l 346 0 z"},"/":{"x_min":0,"x_max":600,"ha":600,"o":"m 56 -10 l 457 725 l 543 725 l 145 -10 z"},"[":{"x_min":0,"x_max":600,"ha":600,"o":"m 200 -208 l 200 725 l 467 725 l 467 657 l 288 657 l 288 -140 l 467 -140 l 467 -208 z"},"6":{"x_min":0,"x_max":600,"ha":600,"o":"m 535 218 q 535 114 476 52 q 417 -10 313 -10 q 198 -10 136 74 q 74 159 74 313 q 74 483 138 576 q 203 669 320 669 q 476 669 516 529 l 432 514 q 406 598 319 598 q 244 598 203 530 q 161 462 161 339 q 185 384 229 407 q 272 430 328 430 q 422 430 479 372 q 535 314 535 218 z m 446 214 q 446 284 408 323 q 371 362 307 362 q 271 362 239 346 q 207 330 188 301 q 170 271 170 235 q 170 161 209 111 q 249 61 310 61 q 372 61 409 102 q 446 143 446 214 z"},"r":{"x_min":0,"x_max":600,"ha":600,"o":"m 510 448 q 456 458 407 458 q 328 458 280 398 q 231 339 231 248 l 231 0 l 144 0 l 144 342 q 144 379 137 430 q 130 480 118 528 l 202 528 q 221 461 225 406 l 228 406 q 252 461 275 487 q 299 512 331 525 q 363 538 410 538 q 460 538 510 530 z"},"2":{"x_min":0,"x_max":600,"ha":600,"o":"m 70 0 l 70 57 q 94 110 145 164 q 195 218 282 288 q 360 350 394 396 q 428 441 428 484 q 428 538 395 567 q 361 597 298 597 q 243 597 208 566 q 174 536 167 480 l 78 489 q 87 572 146 620 q 204 669 298 669 q 402 669 460 622 q 519 575 519 489 q 519 433 481 377 q 444 321 371 263 q 270 183 231 145 q 192 107 176 71 l 529 71 l 529 0 z"},"{":{"x_min":0,"x_max":600,"ha":600,"o":"m 389 -208 q 325 -208 285 -166 q 245 -125 245 -60 l 245 112 q 245 164 209 193 q 174 223 111 225 l 111 292 q 174 294 210 324 q 245 354 245 405 l 245 577 q 245 644 285 684 q 324 725 389 725 l 518 725 l 518 657 l 414 657 q 370 657 350 635 q 331 614 331 562 l 331 393 q 331 345 299 308 q 268 272 218 260 l 218 259 q 268 247 299 211 q 331 175 331 125 l 331 -44 q 331 -96 350 -118 q 370 -140 414 -140 l 518 -140 l 518 -208 z"},"9":{"x_min":0,"x_max":600,"ha":600,"o":"m 531 343 q 531 174 466 82 q 401 -10 282 -10 q 201 -10 153 24 q 104 58 83 134 l 167 147 q 193 61 283 61 q 358 61 401 129 q 443 197 444 317 q 424 273 377 247 q 330 220 273 220 q 181 220 125 282 q 69 345 69 445 q 69 548 130 609 q 191 669 298 669 q 531 669 531 343 z m 435 421 q 435 500 396 549 q 357 598 295 598 q 231 598 195 555 q 158 513 158 445 q 158 375 195 332 q 231 290 294 290 q 331 290 364 306 q 397 323 416 353 q 435 383 435 421 z"}," ":{"x_min":0,"x_max":600,"ha":600,"o":""},"I":{"x_min":0,"x_max":600,"ha":600,"o":"m 99 659 l 500 659 l 500 583 l 346 583 l 346 76 l 500 76 l 500 0 l 99 0 l 99 76 l 253 76 l 253 583 l 99 583 z"},"H":{"x_min":0,"x_max":600,"ha":600,"o":"m 427 0 l 427 304 l 172 304 l 172 0 l 79 0 l 79 659 l 172 659 l 172 382 l 427 382 l 427 659 l 521 659 l 521 0 z"},"4":{"x_min":0,"x_max":600,"ha":600,"o":"m 458 156 l 458 0 l 370 0 l 370 156 l 50 156 l 50 224 l 360 659 l 458 659 l 458 225 l 549 225 l 549 156 z m 370 563 l 125 225 l 370 225 z"},"~":{"x_min":0,"x_max":600,"ha":600,"o":"m 181 394 q 231 394 296 372 q 368 347 389 342 q 410 337 428 337 q 491 337 547 382 l 547 309 q 518 289 490 279 q 461 270 420 270 q 386 270 351 281 q 315 292 280 304 q 217 326 174 326 q 141 326 113 316 q 84 306 53 283 l 53 353 q 107 394 181 394 z"},"D":{"x_min":0,"x_max":600,"ha":600,"o":"m 549 336 q 549 174 474 87 q 399 0 260 0 l 79 0 l 79 659 l 231 659 q 392 659 470 578 q 549 498 549 336 z m 456 336 q 456 465 402 524 q 348 583 231 583 l 172 583 l 172 76 l 251 76 q 355 76 405 141 q 456 206 456 336 z"},"^":{"x_min":0,"x_max":600,"ha":600,"o":"m 459 216 l 298 608 l 139 216 l 65 216 l 250 659 l 349 659 l 534 216 z"},"0":{"x_min":0,"x_max":600,"ha":600,"o":"m 539 330 q 539 165 478 77 q 417 -10 298 -10 q 180 -10 120 77 q 61 164 61 330 q 61 500 119 584 q 177 669 301 669 q 423 669 481 584 q 539 499 539 330 z m 449 330 q 449 471 415 534 q 380 598 301 598 q 220 598 185 535 q 149 473 149 330 q 149 190 185 126 q 221 62 299 62 q 377 62 413 128 q 449 194 449 330 z m 242 271 l 242 393 l 357 393 l 357 271 z"},"F":{"x_min":0,"x_max":600,"ha":600,"o":"m 188 583 l 188 341 l 518 341 l 518 264 l 188 264 l 188 0 l 95 0 l 95 659 l 530 659 l 530 583 z"},"`":{"x_min":0,"x_max":600,"ha":600,"o":"m 343 586 l 196 699 l 196 713 l 292 713 l 403 596 l 403 586 z"},"k":{"x_min":0,"x_max":600,"ha":600,"o":"m 446 0 l 268 244 l 203 196 l 203 0 l 115 0 l 115 725 l 203 725 l 203 272 l 435 528 l 538 528 l 324 301 l 549 0 z"},"u":{"x_min":0,"x_max":600,"ha":600,"o":"m 178 528 l 178 193 q 178 117 202 88 q 226 58 288 58 q 351 58 387 101 q 424 144 424 222 l 424 528 l 512 528 l 512 113 q 512 21 515 0 l 432 0 q 432 2 431 13 q 431 24 430 38 q 429 52 428 90 l 427 90 q 396 36 357 13 q 317 -10 258 -10 q 171 -10 131 33 q 90 77 90 176 l 90 528 z"},"]":{"x_min":0,"x_max":600,"ha":600,"o":"m 132 -208 l 132 -140 l 311 -140 l 311 657 l 132 657 l 132 725 l 399 725 l 399 -208 z"},"U":{"x_min":0,"x_max":600,"ha":600,"o":"m 530 239 q 530 109 474 50 q 418 -10 295 -10 q 176 -10 123 48 q 69 105 69 230 l 69 659 l 163 659 l 163 243 q 163 144 191 105 q 220 66 295 66 q 374 66 405 106 q 437 146 437 250 l 437 659 l 530 659 z"},"o":{"x_min":0,"x_max":600,"ha":600,"o":"m 536 265 q 536 131 474 61 q 413 -10 297 -10 q 184 -10 124 62 q 63 133 63 265 q 63 401 125 469 q 187 538 300 538 q 419 538 478 470 q 536 402 536 265 z m 443 265 q 443 370 410 421 q 376 473 302 473 q 226 473 191 420 q 156 368 156 265 q 156 162 191 109 q 226 55 296 55 q 374 55 409 107 q 443 160 443 265 z"},"N":{"x_min":0,"x_max":600,"ha":600,"o":"m 408 0 l 154 552 q 162 468 162 428 l 162 0 l 79 0 l 79 659 l 188 659 l 445 103 q 437 173 437 237 l 437 659 l 521 659 l 521 0 z"},"+":{"x_min":0,"x_max":600,"ha":600,"o":"m 335 297 l 335 88 l 264 88 l 264 297 l 57 297 l 57 368 l 264 368 l 264 577 l 335 577 l 335 368 l 542 368 l 542 297 z"},"G":{"x_min":0,"x_max":600,"ha":600,"o":"m 538 65 q 426 -10 312 -10 q 190 -10 123 81 q 55 171 55 333 q 55 502 120 585 q 184 669 313 669 q 482 669 539 507 l 455 480 q 416 593 314 593 q 232 593 193 531 q 153 470 153 333 q 153 66 320 66 q 353 66 389 76 q 424 86 447 102 l 447 266 l 304 266 l 304 344 l 538 344 z"},"q":{"x_min":0,"x_max":600,"ha":600,"o":"m 258 536 q 321 536 359 514 q 396 493 420 446 l 421 446 q 421 461 423 492 q 425 523 427 529 l 513 529 q 510 502 510 391 l 510 -208 l 421 -208 l 421 7 l 423 89 l 422 89 q 396 37 358 12 q 319 -13 259 -13 q 160 -13 114 56 q 67 125 67 260 q 67 536 258 536 z m 421 271 q 421 374 388 423 q 355 471 283 471 q 217 471 188 421 q 158 372 158 263 q 158 155 188 105 q 218 55 282 55 q 354 55 387 108 q 421 162 421 271 z"},"d":{"x_min":0,"x_max":600,"ha":600,"o":"m 421 85 q 397 34 357 10 q 318 -13 259 -13 q 160 -13 114 55 q 67 123 67 260 q 67 536 259 536 q 318 536 358 515 q 397 494 421 446 l 422 446 l 421 520 l 421 725 l 509 725 l 509 109 q 509 26 512 0 l 428 0 q 426 7 425 36 q 423 64 423 85 z m 158 263 q 158 154 187 105 q 216 55 282 55 q 353 55 387 107 q 421 158 421 271 q 421 375 388 423 q 355 471 283 471 q 217 471 188 421 q 158 371 158 263 z"},"1":{"x_min":0,"x_max":600,"ha":600,"o":"m 77 0 l 77 71 l 291 71 l 291 569 q 273 531 205 503 q 138 475 72 475 l 72 547 q 145 547 209 579 q 273 610 298 659 l 379 659 l 379 71 l 552 71 l 552 0 z"},"5":{"x_min":0,"x_max":600,"ha":600,"o":"m 537 217 q 537 149 508 98 q 479 46 424 18 q 368 -10 292 -10 q 196 -10 137 32 q 78 74 62 154 l 151 164 q 179 62 294 62 q 363 62 404 103 q 445 144 445 215 q 445 275 405 314 q 364 353 296 353 q 261 353 230 341 q 199 330 168 303 l 83 303 l 105 659 l 497 659 l 497 588 l 187 588 l 172 380 q 229 424 314 424 q 414 424 475 367 q 537 310 537 217 z"}}}
